<svg id="github" xmlns="http://www.w3.org/2000/svg" xmlns:xlink="http://www.w3.org/1999/xlink" x="0px" y="0px"
	 width="60px" height="60px" viewBox="0 0 60 60" enable-background="new 0 0 60 60" xml:space="preserve">
<g>
	<path fill="#212121" d="M39.313,58.966c0,0-1.875-0.386-1.881-1.552c-0.016-2.168-0.016-4.333,0.021-6.501
		c0.036-2.491-0.021-4.954-1.918-7.011c1.128-0.201,2.132-0.344,3.112-0.568c6.506-1.493,9.885-5.598,10.314-12.406
		c0.221-3.466-0.396-6.645-2.699-9.375c-0.169-0.192-0.178-0.628-0.099-0.908c0.612-2.257,0.437-4.462-0.279-6.668
		c-0.176-0.551-0.469-0.722-1.014-0.686c-1.909,0.105-3.659,0.776-5.202,1.808c-1.486,0.999-2.872,1.216-4.639,0.811
		c-3.891-0.877-7.805-0.622-11.688,0.278c-0.439,0.105-1.03-0.035-1.433-0.271c-1.822-1.067-3.645-2.105-5.747-2.52
		c-1.625-0.316-1.766-0.235-2.197,1.335c-0.543,1.982-0.597,3.964-0.043,5.956c0.079,0.29-0.003,0.755-0.197,0.969
		c-4.306,4.806-2.747,13.885,0.155,17.362c2.258,2.701,5.255,3.918,8.584,4.549c0.581,0.108,1.158,0.19,1.739,0.293
		c-0.499,1.296-0.946,2.521-1.453,3.726c-0.1,0.231-0.415,0.429-0.672,0.524c-3.264,1.267-6.069,0.336-7.938-2.627
		c-0.999-1.58-2.28-2.762-4.191-3.104c-0.061-0.011-0.122-0.042-0.178-0.033c-0.515,0.135-1.023,0.275-1.535,0.413
		c0.288,0.401,0.492,0.939,0.877,1.183c1.62,1.021,2.673,2.482,3.367,4.207c1.094,2.701,3.216,3.904,5.974,4.142
		c1.345,0.108,2.704,0.017,4.178,0.017c0,1.678,0.061,3.592-0.025,5.498c-0.044,1.028-1.617,0.971-1.617,0.971
		C21.696,60.326,39.563,60,39.313,58.966z M24.223,43.797c-0.01,0.021-0.016,0.039-0.028,0.063c0.031,0.006,0.061,0.011,0.094,0.016
		C24.312,43.877,24.332,43.918,24.223,43.797z"/>
</g>
</svg>
