<svg width="291" height="36" viewBox="0 0 291 36" xmlns="http://www.w3.org/2000/svg">
  <defs>
          <linearGradient id="gradient" x1="100%" y1="100%">
            <stop offset="0%" stop-color="#ec008c">
              <animate attributeName="stop-color" values="#65316b;#009eb5;#ec008c;#ec008c;#212121;#ec008c;#f05a28;#65316b" dur="14s" repeatCount="indefinite" />
            </stop>
            <stop offset="100%" stop-color="#ec008c">
              <animate attributeName="stop-color" values="#009eb5;#65316b;#65316b;#ec008c;#212121;#009eb5;#ec008c;#f05a28;#65316b" dur="14s" repeatCount="indefinite" />
              <animate attributeName="offset" values=".95;.80;.60;.40;.20;0;.20;.40;.60;.80;.95" dur="14s" repeatCount="indefinite" />
            </stop>
          </linearGradient>
  </defs>
<g id="Latest Projects">
<path fill="url(#gradient)" d="M1.61 28.5C1.35667 28.5 1.12867 28.4113 0.926 28.234C0.748667 28.0313 0.66 27.8033 0.66 27.55V2.85C0.66 2.57133 0.748667 2.34333 0.926 2.166C1.12867 1.98867 1.35667 1.9 1.61 1.9H6.626C6.90467 1.9 7.13267 1.98867 7.31 2.166C7.48733 2.34333 7.576 2.57133 7.576 2.85V22.762H19.09C19.3687 22.762 19.5967 22.8633 19.774 23.066C19.9513 23.2433 20.04 23.4713 20.04 23.75V27.55C20.04 27.8033 19.9513 28.0313 19.774 28.234C19.5967 28.4113 19.3687 28.5 19.09 28.5H1.61Z"/>
<path fill="url(#gradient)" d="M28.8438 28.88C27.5012 28.88 26.2725 28.6267 25.1578 28.12C24.0685 27.588 23.2072 26.8787 22.5738 25.992C21.9658 25.08 21.6618 24.0793 21.6618 22.99C21.6618 21.242 22.3712 19.836 23.7898 18.772C25.2338 17.708 27.2098 16.9733 29.7178 16.568L34.4678 15.846V15.314C34.4678 14.3513 34.2652 13.642 33.8598 13.186C33.4545 12.73 32.7705 12.502 31.8078 12.502C31.2252 12.502 30.7438 12.6033 30.3638 12.806C29.9838 13.0087 29.5912 13.2873 29.1858 13.642C28.8312 13.946 28.5652 14.1487 28.3878 14.25C28.3118 14.4527 28.1725 14.554 27.9698 14.554H23.8278C23.5745 14.554 23.3592 14.478 23.1818 14.326C23.0298 14.1487 22.9665 13.946 22.9918 13.718C23.0172 13.034 23.3465 12.274 23.9798 11.438C24.6385 10.602 25.6265 9.88 26.9438 9.272C28.2865 8.664 29.9332 8.36 31.8838 8.36C34.9998 8.36 37.3052 9.05667 38.7998 10.45C40.2945 11.818 41.0418 13.6673 41.0418 15.998V27.55C41.0418 27.8033 40.9532 28.0313 40.7758 28.234C40.5985 28.4113 40.3705 28.5 40.0918 28.5H35.6838C35.4305 28.5 35.2025 28.4113 34.9998 28.234C34.8225 28.0313 34.7338 27.8033 34.7338 27.55V26.22C34.1765 27.0053 33.3912 27.6513 32.3778 28.158C31.3898 28.6393 30.2118 28.88 28.8438 28.88ZM30.6298 24.548C31.7952 24.548 32.7325 24.168 33.4418 23.408C34.1765 22.648 34.5438 21.5333 34.5438 20.064V19.532L31.3138 20.102C29.0338 20.5073 27.8938 21.3053 27.8938 22.496C27.8938 23.1293 28.1598 23.636 28.6918 24.016C29.2238 24.3707 29.8698 24.548 30.6298 24.548Z"/>
<path fill="url(#gradient)" d="M55.2895 28.5C50.0455 28.5 47.4235 26.0047 47.4235 21.014V13.718H44.4595C44.1808 13.718 43.9401 13.6293 43.7375 13.452C43.5601 13.2747 43.4715 13.0467 43.4715 12.768V9.69C43.4715 9.41133 43.5601 9.18333 43.7375 9.006C43.9401 8.82867 44.1808 8.74 44.4595 8.74H47.4235V2.47C47.4235 2.19133 47.5121 1.96333 47.6895 1.786C47.8921 1.60867 48.1201 1.52 48.3735 1.52H52.7815C53.0601 1.52 53.2881 1.60867 53.4655 1.786C53.6428 1.96333 53.7315 2.19133 53.7315 2.47V8.74H58.4815C58.7601 8.74 58.9881 8.82867 59.1655 9.006C59.3681 9.18333 59.4695 9.41133 59.4695 9.69V12.768C59.4695 13.0467 59.3681 13.2747 59.1655 13.452C58.9881 13.6293 58.7601 13.718 58.4815 13.718H53.7315V20.482C53.7315 22.3567 54.4535 23.294 55.8975 23.294H58.8235C59.1021 23.294 59.3301 23.3827 59.5075 23.56C59.6848 23.7373 59.7735 23.9653 59.7735 24.244V27.55C59.7735 27.8033 59.6848 28.0313 59.5075 28.234C59.3301 28.4113 59.1021 28.5 58.8235 28.5H55.2895Z"/>
<path fill="url(#gradient)" d="M72.0397 28.88C68.9997 28.88 66.6057 28.0567 64.8577 26.41C63.1097 24.7633 62.1977 22.3693 62.1217 19.228V17.898C62.2231 14.9087 63.1477 12.578 64.8957 10.906C66.6691 9.20866 69.0377 8.36 72.0017 8.36C74.1551 8.36 75.9664 8.80333 77.4357 9.69C78.9304 10.5513 80.0451 11.742 80.7797 13.262C81.5397 14.782 81.9197 16.53 81.9197 18.506V19.418C81.9197 19.6713 81.8311 19.8993 81.6537 20.102C81.4764 20.2793 81.2484 20.368 80.9697 20.368H68.8097V20.634C68.8604 21.8247 69.1517 22.7873 69.6837 23.522C70.2157 24.2567 70.9884 24.624 72.0017 24.624C72.6351 24.624 73.1544 24.4973 73.5597 24.244C73.9651 23.9653 74.3324 23.636 74.6617 23.256C74.8897 22.9773 75.0671 22.8127 75.1937 22.762C75.3457 22.686 75.5737 22.648 75.8777 22.648H80.5897C80.8177 22.648 81.0077 22.724 81.1597 22.876C81.3371 23.0027 81.4257 23.18 81.4257 23.408C81.4257 24.0667 81.0457 24.8267 80.2857 25.688C79.5511 26.5493 78.4744 27.2967 77.0557 27.93C75.6371 28.5633 73.9651 28.88 72.0397 28.88ZM75.2317 16.606V16.53C75.2317 15.2887 74.9404 14.3133 74.3577 13.604C73.8004 12.8693 73.0151 12.502 72.0017 12.502C71.0137 12.502 70.2284 12.8693 69.6457 13.604C69.0884 14.3133 68.8097 15.2887 68.8097 16.53V16.606H75.2317Z"/>
<path fill="url(#gradient)" d="M93.6142 28.88C91.5622 28.88 89.8396 28.5887 88.4462 28.006C87.0782 27.4233 86.0649 26.7267 85.4062 25.916C84.7476 25.1053 84.4182 24.3833 84.4182 23.75C84.4182 23.4967 84.5069 23.294 84.6842 23.142C84.8869 22.9647 85.1022 22.876 85.3302 22.876H89.6622C89.8142 22.876 89.9536 22.9393 90.0802 23.066C90.3842 23.2687 90.6122 23.4333 90.7642 23.56C91.3216 23.9653 91.8029 24.2693 92.2082 24.472C92.6389 24.6493 93.1582 24.738 93.7662 24.738C94.5009 24.738 95.0962 24.5987 95.5522 24.32C96.0336 24.016 96.2742 23.598 96.2742 23.066C96.2742 22.6353 96.1476 22.2933 95.8942 22.04C95.6662 21.7867 95.2102 21.546 94.5262 21.318C93.8422 21.0647 92.8036 20.7987 91.4102 20.52C89.3076 20.0893 87.6862 19.3927 86.5462 18.43C85.4316 17.442 84.8742 16.1247 84.8742 14.478C84.8742 13.4393 85.2036 12.4513 85.8622 11.514C86.5209 10.5767 87.4962 9.81667 88.7882 9.234C90.1056 8.65133 91.6636 8.36 93.4622 8.36C95.2609 8.36 96.8316 8.63867 98.1742 9.196C99.5169 9.75333 100.53 10.4373 101.214 11.248C101.924 12.0333 102.278 12.7553 102.278 13.414C102.278 13.642 102.19 13.8447 102.012 14.022C101.86 14.1993 101.67 14.288 101.442 14.288H97.4902C97.2876 14.288 97.0976 14.2247 96.9202 14.098C96.5909 13.9207 96.2996 13.7307 96.0462 13.528C95.6156 13.1987 95.2102 12.9453 94.8302 12.768C94.4502 12.5907 93.9816 12.502 93.4242 12.502C92.7656 12.502 92.2336 12.654 91.8282 12.958C91.4482 13.262 91.2582 13.6547 91.2582 14.136C91.2582 14.516 91.3596 14.8327 91.5622 15.086C91.7902 15.3393 92.2462 15.5927 92.9302 15.846C93.6396 16.074 94.6782 16.3147 96.0462 16.568C98.5036 16.9987 100.29 17.7587 101.404 18.848C102.544 19.9373 103.114 21.2167 103.114 22.686C103.114 24.5607 102.278 26.068 100.606 27.208C98.9342 28.3227 96.6036 28.88 93.6142 28.88Z"/>
<path fill="url(#gradient)" d="M116.483 28.5C111.239 28.5 108.617 26.0047 108.617 21.014V13.718H105.653C105.374 13.718 105.133 13.6293 104.931 13.452C104.753 13.2747 104.665 13.0467 104.665 12.768V9.69C104.665 9.41133 104.753 9.18333 104.931 9.006C105.133 8.82867 105.374 8.74 105.653 8.74H108.617V2.47C108.617 2.19133 108.705 1.96333 108.883 1.786C109.085 1.60867 109.313 1.52 109.567 1.52H113.975C114.253 1.52 114.481 1.60867 114.659 1.786C114.836 1.96333 114.925 2.19133 114.925 2.47V8.74H119.675C119.953 8.74 120.181 8.82867 120.359 9.006C120.561 9.18333 120.663 9.41133 120.663 9.69V12.768C120.663 13.0467 120.561 13.2747 120.359 13.452C120.181 13.6293 119.953 13.718 119.675 13.718H114.925V20.482C114.925 22.3567 115.647 23.294 117.091 23.294H120.017C120.295 23.294 120.523 23.3827 120.701 23.56C120.878 23.7373 120.967 23.9653 120.967 24.244V27.55C120.967 27.8033 120.878 28.0313 120.701 28.234C120.523 28.4113 120.295 28.5 120.017 28.5H116.483Z"/>
<path fill="url(#gradient)" d="M133.571 28.5C133.318 28.5 133.09 28.4113 132.887 28.234C132.71 28.0313 132.621 27.8033 132.621 27.55V2.85C132.621 2.57133 132.71 2.34333 132.887 2.166C133.09 1.98867 133.318 1.9 133.571 1.9H144.211C147.454 1.9 150 2.64733 151.849 4.142C153.724 5.63667 154.661 7.81533 154.661 10.678C154.661 13.5153 153.736 15.656 151.887 17.1C150.038 18.5187 147.479 19.228 144.211 19.228H139.689V27.55C139.689 27.8287 139.588 28.0567 139.385 28.234C139.208 28.4113 138.98 28.5 138.701 28.5H133.571ZM144.021 13.984C145.136 13.984 146.01 13.7053 146.643 13.148C147.276 12.5653 147.593 11.7167 147.593 10.602C147.593 9.56333 147.289 8.74 146.681 8.132C146.098 7.49867 145.212 7.182 144.021 7.182H139.575V13.984H144.021Z"/>
<path fill="url(#gradient)" d="M158.833 28.5C158.554 28.5 158.326 28.4113 158.149 28.234C157.971 28.0567 157.883 27.8287 157.883 27.55V9.69C157.883 9.41133 157.971 9.18333 158.149 9.006C158.326 8.82867 158.554 8.74 158.833 8.74H163.203C163.481 8.74 163.709 8.84133 163.887 9.044C164.089 9.22133 164.191 9.43667 164.191 9.69V11.21C165.584 9.56333 167.459 8.74 169.815 8.74H171.487C171.765 8.74 171.993 8.82867 172.171 9.006C172.348 9.18333 172.437 9.41133 172.437 9.69V13.604C172.437 13.8573 172.348 14.0853 172.171 14.288C171.993 14.4653 171.765 14.554 171.487 14.554H167.801C166.762 14.554 165.951 14.8453 165.369 15.428C164.811 15.9853 164.533 16.7833 164.533 17.822V27.55C164.533 27.8287 164.431 28.0567 164.229 28.234C164.051 28.4113 163.823 28.5 163.545 28.5H158.833Z"/>
<path fill="url(#gradient)" d="M184.301 28.88C181.16 28.88 178.74 28.1327 177.043 26.638C175.346 25.1433 174.421 23.0407 174.269 20.33C174.244 20.0007 174.231 19.4307 174.231 18.62C174.231 17.8093 174.244 17.2393 174.269 16.91C174.421 14.2247 175.371 12.1347 177.119 10.64C178.867 9.12 181.261 8.36 184.301 8.36C187.366 8.36 189.773 9.12 191.521 10.64C193.269 12.1347 194.219 14.2247 194.371 16.91C194.396 17.2393 194.409 17.8093 194.409 18.62C194.409 19.4307 194.396 20.0007 194.371 20.33C194.219 23.0407 193.294 25.1433 191.597 26.638C189.9 28.1327 187.468 28.88 184.301 28.88ZM184.301 24.244C185.416 24.244 186.239 23.9147 186.771 23.256C187.303 22.572 187.607 21.5333 187.683 20.14C187.708 19.8867 187.721 19.38 187.721 18.62C187.721 17.86 187.708 17.3533 187.683 17.1C187.607 15.732 187.29 14.706 186.733 14.022C186.201 13.338 185.39 12.996 184.301 12.996C182.198 12.996 181.084 14.364 180.957 17.1L180.919 18.62L180.957 20.14C181.008 21.5333 181.299 22.572 181.831 23.256C182.388 23.9147 183.212 24.244 184.301 24.244Z"/>
<path fill="url(#gradient)" d="M199.513 5.89C199.235 5.89 199.007 5.80133 198.829 5.624C198.652 5.44667 198.563 5.21867 198.563 4.94V1.52C198.563 1.24133 198.652 1.01333 198.829 0.835999C199.032 0.658666 199.26 0.57 199.513 0.57H204.301C204.58 0.57 204.808 0.658666 204.985 0.835999C205.163 1.01333 205.251 1.24133 205.251 1.52V4.94C205.251 5.21867 205.163 5.44667 204.985 5.624C204.808 5.80133 204.58 5.89 204.301 5.89H199.513ZM194.877 35.72C194.599 35.72 194.371 35.6313 194.193 35.454C193.991 35.2767 193.889 35.0487 193.889 34.77V31.692C193.889 31.4133 193.991 31.1853 194.193 31.008C194.371 30.8307 194.599 30.742 194.877 30.742H196.283C197.17 30.742 197.778 30.5013 198.107 30.02C198.437 29.564 198.601 28.88 198.601 27.968V9.69C198.601 9.41133 198.69 9.18333 198.867 9.006C199.07 8.82867 199.298 8.74 199.551 8.74H204.263C204.542 8.74 204.77 8.82867 204.947 9.006C205.125 9.18333 205.213 9.41133 205.213 9.69V28.12C205.213 30.552 204.491 32.4267 203.047 33.744C201.629 35.0613 199.615 35.72 197.005 35.72H194.877Z"/>
<path fill="url(#gradient)" d="M218.807 28.88C215.767 28.88 213.373 28.0567 211.625 26.41C209.877 24.7633 208.965 22.3693 208.889 19.228V17.898C208.991 14.9087 209.915 12.578 211.663 10.906C213.437 9.20866 215.805 8.36 218.769 8.36C220.923 8.36 222.734 8.80333 224.203 9.69C225.698 10.5513 226.813 11.742 227.547 13.262C228.307 14.782 228.687 16.53 228.687 18.506V19.418C228.687 19.6713 228.599 19.8993 228.421 20.102C228.244 20.2793 228.016 20.368 227.737 20.368H215.577V20.634C215.628 21.8247 215.919 22.7873 216.451 23.522C216.983 24.2567 217.756 24.624 218.769 24.624C219.403 24.624 219.922 24.4973 220.327 24.244C220.733 23.9653 221.1 23.636 221.429 23.256C221.657 22.9773 221.835 22.8127 221.961 22.762C222.113 22.686 222.341 22.648 222.645 22.648H227.357C227.585 22.648 227.775 22.724 227.927 22.876C228.105 23.0027 228.193 23.18 228.193 23.408C228.193 24.0667 227.813 24.8267 227.053 25.688C226.319 26.5493 225.242 27.2967 223.823 27.93C222.405 28.5633 220.733 28.88 218.807 28.88ZM221.999 16.606V16.53C221.999 15.2887 221.708 14.3133 221.125 13.604C220.568 12.8693 219.783 12.502 218.769 12.502C217.781 12.502 216.996 12.8693 216.413 13.604C215.856 14.3133 215.577 15.2887 215.577 16.53V16.606H221.999Z"/>
<path fill="url(#gradient)" d="M241.332 28.88C238.469 28.88 236.151 28.12 234.378 26.6C232.604 25.0547 231.654 22.914 231.528 20.178L231.49 18.658L231.528 17.1C231.629 14.364 232.566 12.2233 234.34 10.678C236.138 9.13267 238.469 8.36 241.332 8.36C243.485 8.36 245.296 8.75267 246.766 9.538C248.26 10.298 249.362 11.2227 250.072 12.312C250.806 13.376 251.199 14.3513 251.25 15.238C251.275 15.4913 251.186 15.7193 250.984 15.922C250.806 16.0993 250.578 16.188 250.3 16.188H245.474C245.195 16.188 244.98 16.1247 244.828 15.998C244.676 15.8713 244.536 15.6813 244.41 15.428C244.106 14.6427 243.713 14.0853 243.232 13.756C242.776 13.4267 242.18 13.262 241.446 13.262C239.368 13.262 238.292 14.6047 238.216 17.29L238.178 18.734L238.216 19.988C238.266 21.356 238.558 22.3693 239.09 23.028C239.647 23.6613 240.432 23.978 241.446 23.978C242.231 23.978 242.852 23.8133 243.308 23.484C243.764 23.1547 244.131 22.5973 244.41 21.812C244.536 21.5587 244.676 21.3687 244.828 21.242C244.98 21.1153 245.195 21.052 245.474 21.052H250.3C250.553 21.052 250.768 21.1407 250.946 21.318C251.148 21.47 251.25 21.6727 251.25 21.926C251.25 22.7367 250.895 23.6867 250.186 24.776C249.502 25.8653 248.412 26.828 246.918 27.664C245.423 28.4747 243.561 28.88 241.332 28.88Z"/>
<path fill="url(#gradient)" d="M264.772 28.5C259.528 28.5 256.906 26.0047 256.906 21.014V13.718H253.942C253.663 13.718 253.423 13.6293 253.22 13.452C253.043 13.2747 252.954 13.0467 252.954 12.768V9.69C252.954 9.41133 253.043 9.18333 253.22 9.006C253.423 8.82867 253.663 8.74 253.942 8.74H256.906V2.47C256.906 2.19133 256.995 1.96333 257.172 1.786C257.375 1.60867 257.603 1.52 257.856 1.52H262.264C262.543 1.52 262.771 1.60867 262.948 1.786C263.125 1.96333 263.214 2.19133 263.214 2.47V8.74H267.964C268.243 8.74 268.471 8.82867 268.648 9.006C268.851 9.18333 268.952 9.41133 268.952 9.69V12.768C268.952 13.0467 268.851 13.2747 268.648 13.452C268.471 13.6293 268.243 13.718 267.964 13.718H263.214V20.482C263.214 22.3567 263.936 23.294 265.38 23.294H268.306C268.585 23.294 268.813 23.3827 268.99 23.56C269.167 23.7373 269.256 23.9653 269.256 24.244V27.55C269.256 27.8033 269.167 28.0313 268.99 28.234C268.813 28.4113 268.585 28.5 268.306 28.5H264.772Z"/>
<path fill="url(#gradient)" d="M280.534 28.88C278.482 28.88 276.759 28.5887 275.366 28.006C273.998 27.4233 272.985 26.7267 272.326 25.916C271.667 25.1053 271.338 24.3833 271.338 23.75C271.338 23.4967 271.427 23.294 271.604 23.142C271.807 22.9647 272.022 22.876 272.25 22.876H276.582C276.734 22.876 276.873 22.9393 277 23.066C277.304 23.2687 277.532 23.4333 277.684 23.56C278.241 23.9653 278.723 24.2693 279.128 24.472C279.559 24.6493 280.078 24.738 280.686 24.738C281.421 24.738 282.016 24.5987 282.472 24.32C282.953 24.016 283.194 23.598 283.194 23.066C283.194 22.6353 283.067 22.2933 282.814 22.04C282.586 21.7867 282.13 21.546 281.446 21.318C280.762 21.0647 279.723 20.7987 278.33 20.52C276.227 20.0893 274.606 19.3927 273.466 18.43C272.351 17.442 271.794 16.1247 271.794 14.478C271.794 13.4393 272.123 12.4513 272.782 11.514C273.441 10.5767 274.416 9.81667 275.708 9.234C277.025 8.65133 278.584 8.36 280.382 8.36C282.181 8.36 283.751 8.63867 285.094 9.196C286.437 9.75333 287.45 10.4373 288.134 11.248C288.843 12.0333 289.198 12.7553 289.198 13.414C289.198 13.642 289.109 13.8447 288.932 14.022C288.78 14.1993 288.59 14.288 288.362 14.288H284.41C284.207 14.288 284.017 14.2247 283.84 14.098C283.511 13.9207 283.219 13.7307 282.966 13.528C282.535 13.1987 282.13 12.9453 281.75 12.768C281.37 12.5907 280.901 12.502 280.344 12.502C279.685 12.502 279.153 12.654 278.748 12.958C278.368 13.262 278.178 13.6547 278.178 14.136C278.178 14.516 278.279 14.8327 278.482 15.086C278.71 15.3393 279.166 15.5927 279.85 15.846C280.559 16.074 281.598 16.3147 282.966 16.568C285.423 16.9987 287.209 17.7587 288.324 18.848C289.464 19.9373 290.034 21.2167 290.034 22.686C290.034 24.5607 289.198 26.068 287.526 27.208C285.854 28.3227 283.523 28.88 280.534 28.88Z"/>
</g>
</svg>
