<svg width="225" height="29" viewBox="0 0 225 29" fill="none" xmlns="http://www.w3.org/2000/svg">
  <defs>
          <linearGradient id="gradient" x1="100%" y1="100%">
            <stop offset="0%" stop-color="#ec008c">
              <animate attributeName="stop-color" values="#65316b;#009eb5;#ec008c;#ec008c;#212121;#ec008c;#f05a28;#65316b" dur="14s" repeatCount="indefinite" />
            </stop>
            <stop offset="100%" stop-color="#ec008c">
              <animate attributeName="stop-color" values="#009eb5;#65316b;#65316b;#ec008c;#212121;#009eb5;#ec008c;#f05a28;#65316b" dur="14s" repeatCount="indefinite" />
              <animate attributeName="offset" values=".95;.80;.60;.40;.20;0;.20;.40;.60;.80;.95" dur="14s" repeatCount="indefinite" />
            </stop>
          </linearGradient>
  </defs>
<g id="Certificates">
<path d="M12.066 28.88C8.44333 28.88 5.606 28.006 3.554 26.258C1.52733 24.4847 0.450666 21.926 0.323999 18.582C0.298666 17.898 0.285999 16.7833 0.285999 15.238C0.285999 13.6673 0.298666 12.5273 0.323999 11.818C0.450666 8.52467 1.55267 5.99133 3.63 4.218C5.70733 2.41933 8.51933 1.52 12.066 1.52C14.2953 1.52 16.2967 1.9 18.07 2.66C19.8433 3.39467 21.2367 4.45867 22.25 5.852C23.2887 7.22 23.8207 8.82867 23.846 10.678V10.754C23.846 10.9567 23.7573 11.134 23.58 11.286C23.428 11.4127 23.2507 11.476 23.048 11.476H17.918C17.5887 11.476 17.3353 11.4127 17.158 11.286C16.9807 11.134 16.8287 10.868 16.702 10.488C16.3473 9.196 15.79 8.29667 15.03 7.79C14.27 7.258 13.2693 6.992 12.028 6.992C9.03867 6.992 7.49333 8.664 7.392 12.008C7.36667 12.692 7.354 13.7433 7.354 15.162C7.354 16.5807 7.36667 17.6573 7.392 18.392C7.49333 21.736 9.03867 23.408 12.028 23.408C13.2693 23.408 14.2827 23.142 15.068 22.61C15.8533 22.0527 16.398 21.1533 16.702 19.912C16.8033 19.532 16.9427 19.2787 17.12 19.152C17.2973 19 17.5633 18.924 17.918 18.924H23.048C23.276 18.924 23.466 19 23.618 19.152C23.7953 19.304 23.8713 19.494 23.846 19.722C23.8207 21.5713 23.2887 23.1927 22.25 24.586C21.2367 25.954 19.8433 27.018 18.07 27.778C16.2967 28.5127 14.2953 28.88 12.066 28.88Z" fill="url(#gradient)"/>
<path d="M36.5436 28.88C33.5036 28.88 31.1096 28.0567 29.3616 26.41C27.6136 24.7633 26.7016 22.3693 26.6256 19.228V17.898C26.727 14.9087 27.6516 12.578 29.3996 10.906C31.173 9.20867 33.5416 8.36 36.5056 8.36C38.659 8.36 40.4703 8.80333 41.9396 9.69C43.4343 10.5513 44.549 11.742 45.2836 13.262C46.0436 14.782 46.4236 16.53 46.4236 18.506V19.418C46.4236 19.6713 46.335 19.8993 46.1576 20.102C45.9803 20.2793 45.7523 20.368 45.4736 20.368H33.3136V20.634C33.3643 21.8247 33.6556 22.7873 34.1876 23.522C34.7196 24.2567 35.4923 24.624 36.5056 24.624C37.139 24.624 37.6583 24.4973 38.0636 24.244C38.469 23.9653 38.8363 23.636 39.1656 23.256C39.3936 22.9773 39.571 22.8127 39.6976 22.762C39.8496 22.686 40.0776 22.648 40.3816 22.648H45.0936C45.3216 22.648 45.5116 22.724 45.6636 22.876C45.841 23.0027 45.9296 23.18 45.9296 23.408C45.9296 24.0667 45.5496 24.8267 44.7896 25.688C44.055 26.5493 42.9783 27.2967 41.5596 27.93C40.141 28.5633 38.469 28.88 36.5436 28.88ZM39.7356 16.606V16.53C39.7356 15.2887 39.4443 14.3133 38.8616 13.604C38.3043 12.8693 37.519 12.502 36.5056 12.502C35.5176 12.502 34.7323 12.8693 34.1496 13.604C33.5923 14.3133 33.3136 15.2887 33.3136 16.53V16.606H39.7356Z" fill="url(#gradient)"/>
<path d="M50.9361 28.5C50.6575 28.5 50.4295 28.4113 50.2521 28.234C50.0748 28.0567 49.9861 27.8287 49.9861 27.55V9.69C49.9861 9.41133 50.0748 9.18333 50.2521 9.006C50.4295 8.82867 50.6575 8.74 50.9361 8.74H55.3061C55.5848 8.74 55.8128 8.84133 55.9901 9.044C56.1928 9.22133 56.2941 9.43667 56.2941 9.69V11.21C57.6875 9.56333 59.5621 8.74 61.9181 8.74H63.5901C63.8688 8.74 64.0968 8.82867 64.2741 9.006C64.4515 9.18333 64.5401 9.41133 64.5401 9.69V13.604C64.5401 13.8573 64.4515 14.0853 64.2741 14.288C64.0968 14.4653 63.8688 14.554 63.5901 14.554H59.9041C58.8655 14.554 58.0548 14.8453 57.4721 15.428C56.9148 15.9853 56.6361 16.7833 56.6361 17.822V27.55C56.6361 27.8287 56.5348 28.0567 56.3321 28.234C56.1548 28.4113 55.9268 28.5 55.6481 28.5H50.9361Z" fill="url(#gradient)"/>
<path d="M77.35 28.5C72.106 28.5 69.484 26.0047 69.484 21.014V13.718H66.52C66.2413 13.718 66.0007 13.6293 65.798 13.452C65.6207 13.2747 65.532 13.0467 65.532 12.768V9.69C65.532 9.41133 65.6207 9.18333 65.798 9.006C66.0007 8.82867 66.2413 8.74 66.52 8.74H69.484V2.47C69.484 2.19133 69.5727 1.96333 69.75 1.786C69.9527 1.60867 70.1807 1.52 70.434 1.52H74.842C75.1207 1.52 75.3487 1.60867 75.526 1.786C75.7033 1.96333 75.792 2.19133 75.792 2.47V8.74H80.542C80.8207 8.74 81.0487 8.82867 81.226 9.006C81.4287 9.18333 81.53 9.41133 81.53 9.69V12.768C81.53 13.0467 81.4287 13.2747 81.226 13.452C81.0487 13.6293 80.8207 13.718 80.542 13.718H75.792V20.482C75.792 22.3567 76.514 23.294 77.958 23.294H80.884C81.1627 23.294 81.3907 23.3827 81.568 23.56C81.7453 23.7373 81.834 23.9653 81.834 24.244V27.55C81.834 27.8033 81.7453 28.0313 81.568 28.234C81.3907 28.4113 81.1627 28.5 80.884 28.5H77.35Z" fill="url(#gradient)"/>
<path d="M85.8923 5.89C85.6136 5.89 85.3856 5.80133 85.2083 5.624C85.0309 5.44667 84.9423 5.21867 84.9423 4.94V1.52C84.9423 1.24133 85.0309 1.01333 85.2083 0.835999C85.3856 0.658666 85.6136 0.57 85.8923 0.57H90.4523C90.7309 0.57 90.9589 0.658666 91.1363 0.835999C91.3136 1.01333 91.4023 1.24133 91.4023 1.52V4.94C91.4023 5.21867 91.3136 5.44667 91.1363 5.624C90.9589 5.80133 90.7309 5.89 90.4523 5.89H85.8923ZM85.9303 28.5C85.6516 28.5 85.4236 28.4113 85.2463 28.234C85.0689 28.0567 84.9803 27.8287 84.9803 27.55V9.69C84.9803 9.41133 85.0689 9.18333 85.2463 9.006C85.4236 8.82867 85.6516 8.74 85.9303 8.74H90.4143C90.6929 8.74 90.9209 8.82867 91.0983 9.006C91.2756 9.18333 91.3643 9.41133 91.3643 9.69V27.55C91.3643 27.8033 91.2756 28.0313 91.0983 28.234C90.9209 28.4113 90.6929 28.5 90.4143 28.5H85.9303Z" fill="url(#gradient)"/>
<path d="M99.0453 28.5C98.792 28.5 98.564 28.4113 98.3613 28.234C98.184 28.0313 98.0953 27.8033 98.0953 27.55V13.718H95.2073C94.9287 13.718 94.7007 13.6293 94.5233 13.452C94.346 13.2747 94.2573 13.0467 94.2573 12.768V9.69C94.2573 9.41133 94.346 9.18333 94.5233 9.006C94.7007 8.82867 94.9287 8.74 95.2073 8.74H98.0953V7.524C98.0953 5.016 98.8047 3.20467 100.223 2.09C101.667 0.949999 103.732 0.38 106.417 0.38H116.145C116.424 0.38 116.652 0.468665 116.829 0.645998C117.007 0.823332 117.095 1.05133 117.095 1.33V4.408C117.095 4.66133 117.007 4.88933 116.829 5.092C116.652 5.26933 116.424 5.358 116.145 5.358H106.721C105.885 5.358 105.29 5.56067 104.935 5.966C104.581 6.346 104.403 6.92867 104.403 7.714V8.74H116.145C116.424 8.74 116.652 8.82867 116.829 9.006C117.007 9.18333 117.095 9.41133 117.095 9.69V27.55C117.095 27.8033 117.007 28.0313 116.829 28.234C116.652 28.4113 116.424 28.5 116.145 28.5H111.737C111.484 28.5 111.256 28.4113 111.053 28.234C110.876 28.0313 110.787 27.8033 110.787 27.55V13.718H104.403V27.55C104.403 27.8033 104.315 28.0313 104.137 28.234C103.96 28.4113 103.732 28.5 103.453 28.5H99.0453Z" fill="url(#gradient)"/>
<path d="M130.615 28.88C127.752 28.88 125.434 28.12 123.661 26.6C121.888 25.0547 120.938 22.914 120.811 20.178L120.773 18.658L120.811 17.1C120.912 14.364 121.85 12.2233 123.623 10.678C125.422 9.13267 127.752 8.36 130.615 8.36C132.768 8.36 134.58 8.75267 136.049 9.538C137.544 10.298 138.646 11.2227 139.355 12.312C140.09 13.376 140.482 14.3513 140.533 15.238C140.558 15.4913 140.47 15.7193 140.267 15.922C140.09 16.0993 139.862 16.188 139.583 16.188H134.757C134.478 16.188 134.263 16.1247 134.111 15.998C133.959 15.8713 133.82 15.6813 133.693 15.428C133.389 14.6427 132.996 14.0853 132.515 13.756C132.059 13.4267 131.464 13.262 130.729 13.262C128.652 13.262 127.575 14.6047 127.499 17.29L127.461 18.734L127.499 19.988C127.55 21.356 127.841 22.3693 128.373 23.028C128.93 23.6613 129.716 23.978 130.729 23.978C131.514 23.978 132.135 23.8133 132.591 23.484C133.047 23.1547 133.414 22.5973 133.693 21.812C133.82 21.5587 133.959 21.3687 134.111 21.242C134.263 21.1153 134.478 21.052 134.757 21.052H139.583C139.836 21.052 140.052 21.1407 140.229 21.318C140.432 21.47 140.533 21.6727 140.533 21.926C140.533 22.7367 140.178 23.6867 139.469 24.776C138.785 25.8653 137.696 26.828 136.201 27.664C134.706 28.4747 132.844 28.88 130.615 28.88Z" fill="url(#gradient)"/>
<path d="M149.875 28.88C148.532 28.88 147.304 28.6267 146.189 28.12C145.1 27.588 144.238 26.8787 143.605 25.992C142.997 25.08 142.693 24.0793 142.693 22.99C142.693 21.242 143.402 19.836 144.821 18.772C146.265 17.708 148.241 16.9733 150.749 16.568L155.499 15.846V15.314C155.499 14.3513 155.296 13.642 154.891 13.186C154.486 12.73 153.802 12.502 152.839 12.502C152.256 12.502 151.775 12.6033 151.395 12.806C151.015 13.0087 150.622 13.2873 150.217 13.642C149.862 13.946 149.596 14.1487 149.419 14.25C149.343 14.4527 149.204 14.554 149.001 14.554H144.859C144.606 14.554 144.39 14.478 144.213 14.326C144.061 14.1487 143.998 13.946 144.023 13.718C144.048 13.034 144.378 12.274 145.011 11.438C145.67 10.602 146.658 9.88 147.975 9.272C149.318 8.664 150.964 8.36 152.915 8.36C156.031 8.36 158.336 9.05667 159.831 10.45C161.326 11.818 162.073 13.6673 162.073 15.998V27.55C162.073 27.8033 161.984 28.0313 161.807 28.234C161.63 28.4113 161.402 28.5 161.123 28.5H156.715C156.462 28.5 156.234 28.4113 156.031 28.234C155.854 28.0313 155.765 27.8033 155.765 27.55V26.22C155.208 27.0053 154.422 27.6513 153.409 28.158C152.421 28.6393 151.243 28.88 149.875 28.88ZM151.661 24.548C152.826 24.548 153.764 24.168 154.473 23.408C155.208 22.648 155.575 21.5333 155.575 20.064V19.532L152.345 20.102C150.065 20.5073 148.925 21.3053 148.925 22.496C148.925 23.1293 149.191 23.636 149.723 24.016C150.255 24.3707 150.901 24.548 151.661 24.548Z" fill="url(#gradient)"/>
<path d="M176.321 28.5C171.077 28.5 168.455 26.0047 168.455 21.014V13.718H165.491C165.212 13.718 164.971 13.6293 164.769 13.452C164.591 13.2747 164.503 13.0467 164.503 12.768V9.69C164.503 9.41133 164.591 9.18333 164.769 9.006C164.971 8.82867 165.212 8.74 165.491 8.74H168.455V2.47C168.455 2.19133 168.543 1.96333 168.721 1.786C168.923 1.60867 169.151 1.52 169.405 1.52H173.813C174.091 1.52 174.319 1.60867 174.497 1.786C174.674 1.96333 174.763 2.19133 174.763 2.47V8.74H179.513C179.791 8.74 180.019 8.82867 180.197 9.006C180.399 9.18333 180.501 9.41133 180.501 9.69V12.768C180.501 13.0467 180.399 13.2747 180.197 13.452C180.019 13.6293 179.791 13.718 179.513 13.718H174.763V20.482C174.763 22.3567 175.485 23.294 176.929 23.294H179.855C180.133 23.294 180.361 23.3827 180.539 23.56C180.716 23.7373 180.805 23.9653 180.805 24.244V27.55C180.805 27.8033 180.716 28.0313 180.539 28.234C180.361 28.4113 180.133 28.5 179.855 28.5H176.321Z" fill="url(#gradient)"/>
<path d="M193.071 28.88C190.031 28.88 187.637 28.0567 185.889 26.41C184.141 24.7633 183.229 22.3693 183.153 19.228V17.898C183.254 14.9087 184.179 12.578 185.927 10.906C187.7 9.20867 190.069 8.36 193.033 8.36C195.186 8.36 196.998 8.80333 198.467 9.69C199.962 10.5513 201.076 11.742 201.811 13.262C202.571 14.782 202.951 16.53 202.951 18.506V19.418C202.951 19.6713 202.862 19.8993 202.685 20.102C202.508 20.2793 202.28 20.368 202.001 20.368H189.841V20.634C189.892 21.8247 190.183 22.7873 190.715 23.522C191.247 24.2567 192.02 24.624 193.033 24.624C193.666 24.624 194.186 24.4973 194.591 24.244C194.996 23.9653 195.364 23.636 195.693 23.256C195.921 22.9773 196.098 22.8127 196.225 22.762C196.377 22.686 196.605 22.648 196.909 22.648H201.621C201.849 22.648 202.039 22.724 202.191 22.876C202.368 23.0027 202.457 23.18 202.457 23.408C202.457 24.0667 202.077 24.8267 201.317 25.688C200.582 26.5493 199.506 27.2967 198.087 27.93C196.668 28.5633 194.996 28.88 193.071 28.88ZM196.263 16.606V16.53C196.263 15.2887 195.972 14.3133 195.389 13.604C194.832 12.8693 194.046 12.502 193.033 12.502C192.045 12.502 191.26 12.8693 190.677 13.604C190.12 14.3133 189.841 15.2887 189.841 16.53V16.606H196.263Z" fill="url(#gradient)"/>
<path d="M214.645 28.88C212.593 28.88 210.871 28.5887 209.477 28.006C208.109 27.4233 207.096 26.7267 206.437 25.916C205.779 25.1053 205.449 24.3833 205.449 23.75C205.449 23.4967 205.538 23.294 205.715 23.142C205.918 22.9647 206.133 22.876 206.361 22.876H210.693C210.845 22.876 210.985 22.9393 211.111 23.066C211.415 23.2687 211.643 23.4333 211.795 23.56C212.353 23.9653 212.834 24.2693 213.239 24.472C213.67 24.6493 214.189 24.738 214.797 24.738C215.532 24.738 216.127 24.5987 216.583 24.32C217.065 24.016 217.305 23.598 217.305 23.066C217.305 22.6353 217.179 22.2933 216.925 22.04C216.697 21.7867 216.241 21.546 215.557 21.318C214.873 21.0647 213.835 20.7987 212.441 20.52C210.339 20.0893 208.717 19.3927 207.577 18.43C206.463 17.442 205.905 16.1247 205.905 14.478C205.905 13.4393 206.235 12.4513 206.893 11.514C207.552 10.5767 208.527 9.81667 209.819 9.234C211.137 8.65133 212.695 8.36 214.493 8.36C216.292 8.36 217.863 8.63867 219.205 9.196C220.548 9.75333 221.561 10.4373 222.245 11.248C222.955 12.0333 223.309 12.7553 223.309 13.414C223.309 13.642 223.221 13.8447 223.043 14.022C222.891 14.1993 222.701 14.288 222.473 14.288H218.521C218.319 14.288 218.129 14.2247 217.951 14.098C217.622 13.9207 217.331 13.7307 217.077 13.528C216.647 13.1987 216.241 12.9453 215.861 12.768C215.481 12.5907 215.013 12.502 214.455 12.502C213.797 12.502 213.265 12.654 212.859 12.958C212.479 13.262 212.289 13.6547 212.289 14.136C212.289 14.516 212.391 14.8327 212.593 15.086C212.821 15.3393 213.277 15.5927 213.961 15.846C214.671 16.074 215.709 16.3147 217.077 16.568C219.535 16.9987 221.321 17.7587 222.435 18.848C223.575 19.9373 224.145 21.2167 224.145 22.686C224.145 24.5607 223.309 26.068 221.637 27.208C219.965 28.3227 217.635 28.88 214.645 28.88Z" fill="url(#gradient)"/>
</g>
</svg>
