<svg width="99" height="29" viewBox="0 0 99 29" xmlns="http://www.w3.org/2000/svg">
  <defs>
          <linearGradient id="gradient" x1="100%" y1="100%">
            <stop offset="0%" stop-color="#ec008c">
              <animate attributeName="stop-color" values="#65316b;#009eb5;#ec008c;#ec008c;#212121;#ec008c;#f05a28;#65316b" dur="14s" repeatCount="indefinite" />
            </stop>
            <stop offset="100%" stop-color="#ec008c">
              <animate attributeName="stop-color" values="#009eb5;#65316b;#65316b;#ec008c;#212121;#009eb5;#ec008c;#f05a28;#65316b" dur="14s" repeatCount="indefinite" />
              <animate attributeName="offset" values=".95;.80;.60;.40;.20;0;.20;.40;.60;.80;.95" dur="14s" repeatCount="indefinite" />
            </stop>
          </linearGradient>
  </defs>
<g id="Skills">
<path d="M11.578 28.38C9.17133 28.38 7.10666 28.0253 5.384 27.316C3.66133 26.6067 2.35666 25.682 1.47 24.542C0.608664 23.3767 0.152664 22.11 0.101997 20.742C0.101997 20.5393 0.177997 20.362 0.329997 20.21C0.507331 20.0327 0.709997 19.944 0.937997 19.944H5.726C6.03 19.944 6.27066 20.0073 6.448 20.134C6.65066 20.2353 6.85333 20.4 7.056 20.628C7.38533 21.2867 7.91733 21.8313 8.652 22.262C9.38666 22.6927 10.362 22.908 11.578 22.908C13.022 22.908 14.124 22.68 14.884 22.224C15.644 21.768 16.024 21.1473 16.024 20.362C16.024 19.8047 15.8213 19.3487 15.416 18.994C15.036 18.6393 14.428 18.3227 13.592 18.044C12.756 17.7653 11.5147 17.4487 9.868 17.094C6.828 16.4607 4.548 15.536 3.028 14.32C1.53333 13.0787 0.785998 11.318 0.785998 9.038C0.785998 7.49267 1.21666 6.112 2.078 4.896C2.93933 3.68 4.168 2.73 5.764 2.046C7.36 1.362 9.222 1.02 11.35 1.02C13.554 1.02 15.4667 1.4 17.088 2.16C18.7093 2.92 19.938 3.88267 20.774 5.048C21.6353 6.188 22.0913 7.31533 22.142 8.43C22.142 8.658 22.066 8.848 21.914 9C21.762 9.152 21.572 9.228 21.344 9.228H16.328C16.024 9.228 15.7707 9.17733 15.568 9.076C15.3907 8.97466 15.226 8.81 15.074 8.582C14.922 7.99933 14.504 7.50533 13.82 7.1C13.1613 6.69467 12.338 6.492 11.35 6.492C10.21 6.492 9.336 6.69467 8.728 7.1C8.12 7.50533 7.816 8.10067 7.816 8.886C7.816 9.418 7.98066 9.86133 8.31 10.216C8.66466 10.5707 9.222 10.9 9.982 11.204C10.7673 11.4827 11.882 11.774 13.326 12.078C15.682 12.5087 17.5567 13.0533 18.95 13.712C20.3687 14.3453 21.4073 15.1813 22.066 16.22C22.7247 17.2333 23.054 18.5127 23.054 20.058C23.054 21.7553 22.56 23.2373 21.572 24.504C20.6093 25.7453 19.254 26.708 17.506 27.392C15.7833 28.0507 13.8073 28.38 11.578 28.38Z" fill="url(#gradient)"/>
<path d="M27.3893 28C27.1359 28 26.9079 27.9113 26.7053 27.734C26.5279 27.5313 26.4393 27.3033 26.4393 27.05V1.97C26.4393 1.69133 26.5279 1.46333 26.7053 1.286C26.9079 1.10867 27.1359 1.02 27.3893 1.02H31.7973C32.0759 1.02 32.3039 1.10867 32.4813 1.286C32.6586 1.46333 32.7473 1.69133 32.7473 1.97V14.7L38.0293 8.886C38.0799 8.83533 38.1686 8.74667 38.2953 8.62C38.4473 8.49333 38.5993 8.40467 38.7513 8.354C38.9033 8.278 39.0806 8.24 39.2833 8.24H44.3753C44.6033 8.24 44.7933 8.32867 44.9453 8.506C45.1226 8.658 45.2113 8.848 45.2113 9.076C45.2113 9.35467 45.1099 9.57 44.9073 9.722L38.0673 17.094L45.8573 26.556C46.0599 26.7587 46.1613 26.9487 46.1613 27.126C46.1613 27.3793 46.0726 27.5947 45.8953 27.772C45.7433 27.924 45.5406 28 45.2873 28H40.0813C39.7519 28 39.4986 27.9493 39.3213 27.848C39.1693 27.7467 38.9793 27.582 38.7513 27.354L32.7473 20.134V27.05C32.7473 27.3033 32.6586 27.5313 32.4813 27.734C32.3039 27.9113 32.0759 28 31.7973 28H27.3893Z" fill="url(#gradient)"/>
<path d="M49.5798 5.39C49.3011 5.39 49.0731 5.30133 48.8958 5.124C48.7184 4.94667 48.6298 4.71867 48.6298 4.44V1.02C48.6298 0.741332 48.7184 0.513333 48.8958 0.335999C49.0731 0.158666 49.3011 0.0699997 49.5798 0.0699997H54.1398C54.4184 0.0699997 54.6464 0.158666 54.8238 0.335999C55.0011 0.513333 55.0898 0.741332 55.0898 1.02V4.44C55.0898 4.71867 55.0011 4.94667 54.8238 5.124C54.6464 5.30133 54.4184 5.39 54.1398 5.39H49.5798ZM49.6178 28C49.3391 28 49.1111 27.9113 48.9338 27.734C48.7564 27.5567 48.6678 27.3287 48.6678 27.05V9.19C48.6678 8.91133 48.7564 8.68333 48.9338 8.506C49.1111 8.32867 49.3391 8.24 49.6178 8.24H54.1018C54.3804 8.24 54.6084 8.32867 54.7858 8.506C54.9631 8.68333 55.0518 8.91133 55.0518 9.19V27.05C55.0518 27.3033 54.9631 27.5313 54.7858 27.734C54.6084 27.9113 54.3804 28 54.1018 28H49.6178Z" fill="url(#gradient)"/>
<path d="M60.4908 28C60.2375 28 60.0095 27.9113 59.8068 27.734C59.6295 27.5313 59.5408 27.3033 59.5408 27.05V1.97C59.5408 1.69133 59.6295 1.46333 59.8068 1.286C60.0095 1.10867 60.2375 1.02 60.4908 1.02H64.9748C65.2535 1.02 65.4815 1.10867 65.6588 1.286C65.8362 1.46333 65.9248 1.69133 65.9248 1.97V27.05C65.9248 27.3287 65.8362 27.5567 65.6588 27.734C65.4815 27.9113 65.2535 28 64.9748 28H60.4908Z" fill="url(#gradient)"/>
<path d="M71.3639 28C71.1105 28 70.8825 27.9113 70.6799 27.734C70.5025 27.5313 70.4139 27.3033 70.4139 27.05V1.97C70.4139 1.69133 70.5025 1.46333 70.6799 1.286C70.8825 1.10867 71.1105 1.02 71.3639 1.02H75.8479C76.1265 1.02 76.3545 1.10867 76.5319 1.286C76.7092 1.46333 76.7979 1.69133 76.7979 1.97V27.05C76.7979 27.3287 76.7092 27.5567 76.5319 27.734C76.3545 27.9113 76.1265 28 75.8479 28H71.3639Z" fill="url(#gradient)"/>
<path d="M89.4189 28.38C87.3669 28.38 85.6443 28.0887 84.2509 27.506C82.8829 26.9233 81.8696 26.2267 81.2109 25.416C80.5523 24.6053 80.2229 23.8833 80.2229 23.25C80.2229 22.9967 80.3116 22.794 80.4889 22.642C80.6916 22.4647 80.9069 22.376 81.1349 22.376H85.4669C85.6189 22.376 85.7583 22.4393 85.8849 22.566C86.1889 22.7687 86.4169 22.9333 86.5689 23.06C87.1263 23.4653 87.6076 23.7693 88.0129 23.972C88.4436 24.1493 88.9629 24.238 89.5709 24.238C90.3056 24.238 90.9009 24.0987 91.3569 23.82C91.8383 23.516 92.0789 23.098 92.0789 22.566C92.0789 22.1353 91.9523 21.7933 91.6989 21.54C91.4709 21.2867 91.0149 21.046 90.3309 20.818C89.6469 20.5647 88.6083 20.2987 87.2149 20.02C85.1123 19.5893 83.4909 18.8927 82.3509 17.93C81.2363 16.942 80.6789 15.6247 80.6789 13.978C80.6789 12.9393 81.0083 11.9513 81.6669 11.014C82.3256 10.0767 83.3009 9.31667 84.5929 8.734C85.9103 8.15133 87.4683 7.86 89.2669 7.86C91.0656 7.86 92.6363 8.13867 93.9789 8.696C95.3216 9.25333 96.3349 9.93733 97.0189 10.748C97.7283 11.5333 98.0829 12.2553 98.0829 12.914C98.0829 13.142 97.9943 13.3447 97.8169 13.522C97.6649 13.6993 97.4749 13.788 97.2469 13.788H93.2949C93.0923 13.788 92.9023 13.7247 92.7249 13.598C92.3956 13.4207 92.1043 13.2307 91.8509 13.028C91.4203 12.6987 91.0149 12.4453 90.6349 12.268C90.2549 12.0907 89.7863 12.002 89.2289 12.002C88.5703 12.002 88.0383 12.154 87.6329 12.458C87.2529 12.762 87.0629 13.1547 87.0629 13.636C87.0629 14.016 87.1643 14.3327 87.3669 14.586C87.5949 14.8393 88.0509 15.0927 88.7349 15.346C89.4443 15.574 90.4829 15.8147 91.8509 16.068C94.3083 16.4987 96.0943 17.2587 97.2089 18.348C98.3489 19.4373 98.9189 20.7167 98.9189 22.186C98.9189 24.0607 98.0829 25.568 96.4109 26.708C94.7389 27.8227 92.4083 28.38 89.4189 28.38Z" fill="url(#gradient)"/>
</g>
</svg>
