<?xml version="1.0" encoding="utf-8"?>
<!-- Generator: Adobe Illustrator 16.0.0, SVG Export Plug-In . SVG Version: 6.00 Build 0)  -->
<!DOCTYPE svg PUBLIC "-//W3C//DTD SVG 1.1//EN" "http://www.w3.org/Graphics/SVG/1.1/DTD/svg11.dtd">
<svg version="1.1" id="Layer_1" xmlns="http://www.w3.org/2000/svg" xmlns:xlink="http://www.w3.org/1999/xlink" x="0px" y="0px"
	 width="100px" height="100px" viewBox="0 0 100 100" enable-background="new 0 0 100 100" xml:space="preserve">
<linearGradient id="SVGID_1_" gradientUnits="userSpaceOnUse" x1="22.564" y1="74.623" x2="71.9178" y2="28.5697">
	<stop  offset="0" style="stop-color:#662D91"/>
	<stop  offset="1" style="stop-color:#EC008C"/>
</linearGradient>
<path fill="url(#SVGID_1_)" d="M73.863,82.119c-3.38,6.325-6.991,11.359-9.729,13.706c-2.882,2.472-6.114,3.725-9.608,3.725
	c-7.038,0-15.256-5.025-25.125-15.367C20.161,74.5,17.288,63.376,16.505,55.749c-0.896-8.722,0.596-17.335,3.8-21.942
	c0.038-0.055,0.078-0.106,0.12-0.156c0.104-0.121,0.401-0.464,0.814-0.93c6.428,1.56,16.629,5.137,23.15,12.925
	c5.804,6.929,8.408,13.506,10.501,18.792c1.754,4.431,3.268,8.255,6.079,11.065C64.736,79.269,70.134,81.185,73.863,82.119z
	 M47.332,43.181c5.021,5.994,7.765,11.656,9.795,16.535c2.896-0.603,9.761-2.568,15.333-8.326
	c4.396-4.545,6.778-12.441,7.981-18.027c-1.93-2.981-4.459-4.316-6.902-5.299c-0.53-0.213-0.985-0.397-1.293-0.576
	c-0.925-0.539-1.564-4.839-0.358-11.509c0.557-3.069,1.053-4.166,1.092-4.247c0.273-0.523,0.291-1.146,0.045-1.686
	c-0.253-0.555-0.753-0.955-1.348-1.082l-5.275-1.119c-1.02-0.218-2.022,0.419-2.266,1.431c-1.26,5.284-3.798,14.357-5.241,16.214
	c-0.138,0.177-0.404,0.472-0.654,0.472c-0.544,0-1.598-1.065-1.672-2.583c-0.125-2.652,0.878-15.954,1.275-20.855
	c0.044-0.534-0.138-1.062-0.501-1.456c-0.363-0.394-0.874-0.616-1.409-0.616h-4.479c-1.006,0-1.845,0.781-1.913,1.787
	c-0.01,0.146-1.003,14.555-1.908,19.23c-0.375,1.941-1.157,5.983-2.387,5.983c-0.166,0-0.459-0.045-0.919-0.256
	c-2.225-1.026-3.941-8.747-4.587-11.654c-0.899-4.046-0.914-8.018-0.914-8.057c0-0.595-0.275-1.156-0.748-1.521
	c-0.472-0.362-1.085-0.485-1.661-0.334l-5.435,1.439c-1.017,0.269-1.627,1.306-1.369,2.326c0.012,0.049,1.25,4.946,2.083,9.396
	c0.506,2.71-0.642,5.441-2.926,6.96c-0.518,0.345-1.015,0.679-1.448,0.98c-0.866,0.601-1.996,1.659-3.09,2.771
	C31.143,31.41,40.757,35.331,47.332,43.181z M75.214,54.059c-5.919,6.119-12.978,8.441-16.633,9.277
	c1.604,4.049,2.911,7.262,5.103,9.453c3.429,3.428,8.718,5.076,11.969,5.809c4.533-9.391,8.23-20.808,8.096-30.536
	c-0.049-3.457-0.372-6.278-0.898-8.608C81.317,44.581,78.914,50.236,75.214,54.059z"/>
</svg>
