<svg id="mail" xmlns="http://www.w3.org/2000/svg" xmlns:xlink="http://www.w3.org/1999/xlink" x="0px" y="0px"
	 width="60px" height="60px" viewBox="0 0 60 60" enable-background="new 0 0 60 60" xml:space="preserve">
<path fill="#212121" d="M13.002,17.104h33.996c0.586,0,1.094,0.235,1.453,0.588L29.999,31.816L11.507,17.74
	C11.866,17.362,12.392,17.104,13.002,17.104z M11.033,41.174V20.259l11.646,8.858L11.121,41.553L11.033,41.174z M46.998,42.896
	H13.002L12.2,42.742l11.757-12.644l5.349,4.07l0.697,0.232l0.696-0.232l5.375-4.122L47.84,42.713L46.998,42.896z M48.967,41.174
	l-0.072,0.316L37.35,29.073l11.617-8.887V41.174z"/>
</svg>
