<svg xmlns="http://www.w3.org/2000/svg" xmlns:xlink="http://www.w3.org/1999/xlink"><symbol id="icon-github" viewBox="0 0 60 60">
<g>
	<path fill="#212121" d="M39.313,58.966c0,0-1.875-0.386-1.881-1.552c-0.016-2.168-0.016-4.333,0.021-6.501
		c0.036-2.491-0.021-4.954-1.918-7.011c1.128-0.201,2.132-0.344,3.112-0.568c6.506-1.493,9.885-5.598,10.314-12.406
		c0.221-3.466-0.396-6.645-2.699-9.375c-0.169-0.192-0.178-0.628-0.099-0.908c0.612-2.257,0.437-4.462-0.279-6.668
		c-0.176-0.551-0.469-0.722-1.014-0.686c-1.909,0.105-3.659,0.776-5.202,1.808c-1.486,0.999-2.872,1.216-4.639,0.811
		c-3.891-0.877-7.805-0.622-11.688,0.278c-0.439,0.105-1.03-0.035-1.433-0.271c-1.822-1.067-3.645-2.105-5.747-2.52
		c-1.625-0.316-1.766-0.235-2.197,1.335c-0.543,1.982-0.597,3.964-0.043,5.956c0.079,0.29-0.003,0.755-0.197,0.969
		c-4.306,4.806-2.747,13.885,0.155,17.362c2.258,2.701,5.255,3.918,8.584,4.549c0.581,0.108,1.158,0.19,1.739,0.293
		c-0.499,1.296-0.946,2.521-1.453,3.726c-0.1,0.231-0.415,0.429-0.672,0.524c-3.264,1.267-6.069,0.336-7.938-2.627
		c-0.999-1.58-2.28-2.762-4.191-3.104c-0.061-0.011-0.122-0.042-0.178-0.033c-0.515,0.135-1.023,0.275-1.535,0.413
		c0.288,0.401,0.492,0.939,0.877,1.183c1.62,1.021,2.673,2.482,3.367,4.207c1.094,2.701,3.216,3.904,5.974,4.142
		c1.345,0.108,2.704,0.017,4.178,0.017c0,1.678,0.061,3.592-0.025,5.498c-0.044,1.028-1.617,0.971-1.617,0.971
		C21.696,60.326,39.563,60,39.313,58.966z M24.223,43.797c-0.01,0.021-0.016,0.039-0.028,0.063c0.031,0.006,0.061,0.011,0.094,0.016
		C24.312,43.877,24.332,43.918,24.223,43.797z"/>
</g>
</symbol><symbol id="icon-left" viewBox="0 0 30 30">
<path fill="#fff" d="M22.505,16.787l-12.093,9.592c-1.009,0.801-2.487,0.635-3.295-0.386c-0.799-1.009-0.635-2.486,0.384-3.289
	l9.763-7.745L7.505,7.308c-1.02-0.802-1.198-2.27-0.395-3.293c0.459-0.586,1.15-0.899,1.842-0.899c0.507,0,1.019,0.168,1.447,0.51
	l12.098,9.483c0.56,0.443,0.894,1.119,0.896,1.837C23.393,15.662,23.064,16.346,22.505,16.787z"/>
</symbol><symbol id="icon-mail" viewBox="0 0 60 60">
<path fill="#212121" d="M13.002,17.104h33.996c0.586,0,1.094,0.235,1.453,0.588L29.999,31.816L11.507,17.74
	C11.866,17.362,12.392,17.104,13.002,17.104z M11.033,41.174V20.259l11.646,8.858L11.121,41.553L11.033,41.174z M46.998,42.896
	H13.002L12.2,42.742l11.757-12.644l5.349,4.07l0.697,0.232l0.696-0.232l5.375-4.122L47.84,42.713L46.998,42.896z M48.967,41.174
	l-0.072,0.316L37.35,29.073l11.617-8.887V41.174z"/>
</symbol><symbol id="icon-right" viewBox="0 0 30 30">
<path fill="#fff" d="M7.495,13.213l12.094-9.592c1.009-0.8,2.487-0.635,3.295,0.386c0.799,1.008,0.635,2.486-0.384,3.289
	l-9.764,7.745l9.759,7.651c1.02,0.802,1.198,2.271,0.395,3.293c-0.459,0.586-1.149,0.899-1.842,0.899
	c-0.507,0-1.02-0.168-1.447-0.51L7.503,16.892c-0.56-0.443-0.894-1.119-0.896-1.837C6.607,14.338,6.936,13.656,7.495,13.213z"/>
</symbol><symbol id="icon-telegram" viewBox="0 0 60 60">
<g>
	<path fill="#212121" d="M46.805,16.375l-7.181,28.72c-0.419,1.682-2.423,2.387-3.805,1.339L22.537,36.354l17.062-14.948
			L18.056,34.345l-9.46-3.196c-1.051-0.355-1.078-1.831-0.041-2.225l36.685-13.939C46.131,14.646,47.036,15.45,46.805,16.375z"/>
</g>
</symbol></svg>