<svg xmlns="http://www.w3.org/2000/svg" xmlns:xlink="http://www.w3.org/1999/xlink"><symbol id="icon-github" viewBox="0 0 60 60">
<g>
	<path fill="#212121" d="M39.313,58.966c0,0-1.875-0.386-1.881-1.552c-0.016-2.168-0.016-4.333,0.021-6.501
		c0.036-2.491-0.021-4.954-1.918-7.011c1.128-0.201,2.132-0.344,3.112-0.568c6.506-1.493,9.885-5.598,10.314-12.406
		c0.221-3.466-0.396-6.645-2.699-9.375c-0.169-0.192-0.178-0.628-0.099-0.908c0.612-2.257,0.437-4.462-0.279-6.668
		c-0.176-0.551-0.469-0.722-1.014-0.686c-1.909,0.105-3.659,0.776-5.202,1.808c-1.486,0.999-2.872,1.216-4.639,0.811
		c-3.891-0.877-7.805-0.622-11.688,0.278c-0.439,0.105-1.03-0.035-1.433-0.271c-1.822-1.067-3.645-2.105-5.747-2.52
		c-1.625-0.316-1.766-0.235-2.197,1.335c-0.543,1.982-0.597,3.964-0.043,5.956c0.079,0.29-0.003,0.755-0.197,0.969
		c-4.306,4.806-2.747,13.885,0.155,17.362c2.258,2.701,5.255,3.918,8.584,4.549c0.581,0.108,1.158,0.19,1.739,0.293
		c-0.499,1.296-0.946,2.521-1.453,3.726c-0.1,0.231-0.415,0.429-0.672,0.524c-3.264,1.267-6.069,0.336-7.938-2.627
		c-0.999-1.58-2.28-2.762-4.191-3.104c-0.061-0.011-0.122-0.042-0.178-0.033c-0.515,0.135-1.023,0.275-1.535,0.413
		c0.288,0.401,0.492,0.939,0.877,1.183c1.62,1.021,2.673,2.482,3.367,4.207c1.094,2.701,3.216,3.904,5.974,4.142
		c1.345,0.108,2.704,0.017,4.178,0.017c0,1.678,0.061,3.592-0.025,5.498c-0.044,1.028-1.617,0.971-1.617,0.971
		C21.696,60.326,39.563,60,39.313,58.966z M24.223,43.797c-0.01,0.021-0.016,0.039-0.028,0.063c0.031,0.006,0.061,0.011,0.094,0.016
		C24.312,43.877,24.332,43.918,24.223,43.797z"/>
</g>
</symbol><symbol id="icon-left" viewBox="0 0 19 30.5">
<g>
	<path fill="#FFFFFF" d="M3.025,30.26l-2.058-2.059l6.988-6.99c3.085-3.084,4.886-4.887,5.982-5.939L0.967,2.299L3.025,0.24
		l15.008,15.01L3.025,30.26z"/>
</g>
</symbol><symbol id="icon-mail" viewBox="0 0 60 60">
<path fill="#212121" d="M13.002,17.104h33.996c0.586,0,1.094,0.235,1.453,0.588L29.999,31.816L11.507,17.74
	C11.866,17.362,12.392,17.104,13.002,17.104z M11.033,41.174V20.259l11.646,8.858L11.121,41.553L11.033,41.174z M46.998,42.896
	H13.002L12.2,42.742l11.757-12.644l5.349,4.07l0.697,0.232l0.696-0.232l5.375-4.122L47.84,42.713L46.998,42.896z M48.967,41.174
	l-0.072,0.316L37.35,29.073l11.617-8.887V41.174z"/>
</symbol><symbol id="icon-right" viewBox="0 0 19 30.5">
<g>
	<path fill="#FFFFFF" d="M15.975,0.24l2.058,2.059l-6.988,6.99c-3.085,3.084-4.886,4.887-5.982,5.939l12.972,12.973l-2.059,2.059
		L0.967,15.25L15.975,0.24z"/>
</g>
</symbol><symbol id="icon-telegram" viewBox="0 0 60 60">
<g>
	<path fill="#212121" d="M46.805,16.375l-7.181,28.72c-0.419,1.682-2.423,2.387-3.805,1.339L22.537,36.354l17.062-14.948
			L18.056,34.345l-9.46-3.196c-1.051-0.355-1.078-1.831-0.041-2.225l36.685-13.939C46.131,14.646,47.036,15.45,46.805,16.375z"/>
</g>
</symbol></svg>